<?xml version="1.0" encoding="utf-8"?>
<!-- Generator: Adobe Illustrator 24.0.1, SVG Export Plug-In . SVG Version: 6.00 Build 0)  -->
<svg version="1.1" id="Layer_1" xmlns="http://www.w3.org/2000/svg" xmlns:xlink="http://www.w3.org/1999/xlink" x="0px" y="0px"
	 viewBox="0 0 1683.8 2383.9" style="enable-background:new 0 0 1683.8 2383.9;" xml:space="preserve">
<style type="text/css">
	.st0{fill:none;}
	.st1{font-family:'KozGoPr6N-Regular-90ms-RKSJ-H';}
	.st2{font-size:45px;}
	.st3{fill:none;stroke:#BE1E2D;stroke-width:5.8226;stroke-miterlimit:10;}
	.st4{fill:#BE1E2D;}
	.st5{font-size:40px;}
	.st6{fill:none;stroke:#BE1E2D;stroke-width:7.8252;stroke-miterlimit:10;}
	.st7{fill:none;stroke:#BE1E2D;stroke-width:6.8401;stroke-miterlimit:10;}
	.st8{font-size:39px;}
	.st9{fill:none;stroke:#BE1E2D;stroke-width:4.3891;stroke-miterlimit:10;}
	.st10{fill:#BE1E2D;stroke:#BE1E2D;stroke-width:6.46;stroke-miterlimit:10;}
	.st11{font-family:'HGSoeiPresenceEB';}
	.st12{font-size:72px;}
	.st13{font-size:24px;}
	.st14{fill:#BE1E2D;stroke:#BE1E2D;stroke-width:8.2425;stroke-miterlimit:10;}
	.st15{fill:#ED1C24;}
	.st16{font-size:62.0342px;}
	.st17{font-size:44.7819px;}
	.st18{font-size:52.8649px;}
</style>
<rect x="28.5" y="248.4" class="st0" width="1175.8" height="560.7"/>
<text transform="matrix(1 0 0 1 28.4537 284.406)"><tspan x="0" y="0" class="st1 st2">-第一世代-</tspan><tspan x="0" y="54" class="st1 st2">・オブジェクトを挟んで持ち上げる</tspan><tspan x="0" y="108" class="st1 st2">・バックラッシュ多発(使用するギアが多く、ずれが生じ</tspan><tspan x="0" y="162" class="st1 st2">た)</tspan><tspan x="0" y="270" class="st1 st2">-第二世代-</tspan><tspan x="0" y="324" class="st1 st2">・輪をつかむ機構に変更</tspan><tspan x="0" y="378" class="st1 st2">・ギアがかみ合わない&amp;持ち上がっても不安定</tspan><tspan x="0" y="432" class="st1 st2">・置いた後にオブジェクトが枠に引っ掛かる問題多発</tspan></text>
<rect x="32.5" y="727.1" class="st0" width="767.2" height="601.3"/>
<text transform="matrix(1 0 0 1 32.5341 763.0624)"><tspan x="0" y="0" class="st1 st2">-第三世代-</tspan><tspan x="0" y="54" class="st1 st2">・機構を「つかむ」から「角度をつけ</tspan><tspan x="0" y="108" class="st1 st2">ず、                     　ひっかけて持ち上げ</tspan><tspan x="0" y="162" class="st1 st2">る」に変更</tspan><tspan x="0" y="270" class="st1 st2">・横ブレを防止するブロックを追加</tspan><tspan x="0" y="324" class="st1 st2">　　</tspan><tspan x="0" y="378" class="st1 st2">・ギアの破損を防ぐための</tspan><tspan x="0" y="432" class="st1 st2">　安全装置を追加</tspan><tspan x="0" y="540" class="st1 st2">・足回りの安定性向上のために車輪</tspan></text>
<image style="overflow:visible;" width="1263" height="1684" xlink:href="E31BF995.jpg"  transform="matrix(0.1972 0 0 0.1972 1375.3066 883.0362)">
</image>
<image style="overflow:visible;" width="1263" height="1684" xlink:href="E31BF997.jpg"  transform="matrix(0.2024 0 0 0.2024 839.7543 882.8828)">
</image>
<ellipse class="st3" cx="1005" cy="995.8" rx="37" ry="37.7"/>
<rect x="1093.9" y="820.3" class="st0" width="239.4" height="52.6"/>
<text transform="matrix(1 0 0 1 1093.9175 852.3442)" class="st4 st1 st5">安全装置</text>
<line class="st6" x1="1117.6" y1="864.3" x2="997.8" y2="959.2"/>
<circle class="st7" cx="902" cy="1169.5" r="53.4"/>
<rect x="812.1" y="818.8" class="st0" width="340.9" height="58.3"/>
<text transform="matrix(1 0 0 1 812.1473 849.9697)" class="st4 st1 st8">横ブレ防止用</text>
<image style="overflow:visible;" width="2245" height="1684" xlink:href="E31BF992.jpg"  transform="matrix(0.1341 0 0 0.1341 1330.5856 557.6515)">
</image>
<circle class="st9" cx="1435.7" cy="638" r="48.5"/>
<rect x="1062.6" y="525" class="st0" width="288.6" height="125"/>
<text transform="matrix(1 0 0 1 1062.5859 556.9574)" class="st4 st1 st5">良く引っ掛かる</text>
<path class="st10" d="M1389.2,621.3c-21.8-24-43.7-48-65.5-72"/>
<image style="overflow:visible;" width="1263" height="1684" xlink:href="E31BF993.jpg"  transform="matrix(0.2026 0 0 0.2026 1110.5918 882.4359)">
</image>
<rect x="31.1" y="52.7" class="st0" width="1576.7" height="169.7"/>
<text transform="matrix(1 0 0 1 31.1342 107.295)"><tspan x="0" y="0" class="st11 st12">ハードウェア</tspan><tspan x="0" y="54" class="st1 st2">今大会において重要なのは「いかにしてミスなく課題を解決するか」です。</tspan><tspan x="0" y="108" class="st1 st2">ミスを少なくするため、改善を重ねました。</tspan></text>
<text transform="matrix(1 0 0 1 1146.2207 463.7765)" class="st4 st1 st2">つかむ→</text>
<rect x="22.4" y="1349.4" class="st0" width="882.6" height="64.4"/>
<text transform="matrix(1 0 0 1 22.4452 1404.0009)" class="st11 st12">ソフトウェア</text>
<rect x="18.6" y="1436.5" class="st0" width="1210.8" height="615.3"/>
<text transform="matrix(1 0 0 1 18.626 1468.5209)"><tspan x="0" y="0" class="st1 st5">開発環境：Cygwin64、EV3RT、C言語</tspan><tspan x="0" y="96" class="st1 st5">プログラムは大きく３つに分かれています。</tspan><tspan x="0" y="192" class="st1 st5">１．スタートパート（①、②）</tspan><tspan x="0" y="240" class="st1 st5">最初のシートを読み取り左右を判断する。</tspan><tspan x="0" y="336" class="st1 st5">２．課題パート（③、④）</tspan><tspan x="0" y="384" class="st1 st5">課題をこなすプログラムとカラーブロックとカラーシートを読み取</tspan><tspan x="0" y="432" class="st1 st5">る。</tspan><tspan x="0" y="480" class="st1 st5">このパートは使い回せるようになっている。</tspan><tspan x="0" y="576" class="st1 st5">３．ゴールパート（⑤、⑥）</tspan></text>
<g>
	<defs>
		<rect id="SVGID_1_" x="1335.1" y="256.9" width="294.3" height="251"/>
	</defs>
	<clipPath id="SVGID_2_">
		<use xlink:href="#SVGID_1_"  style="overflow:visible;"/>
	</clipPath>
	<g transform="matrix(1 0 0 1 0 0)" style="clip-path:url(#SVGID_2_);">
		
			<image style="overflow:visible;" width="889" height="876" xlink:href="E31BF99D.png"  transform="matrix(0.5885 0 0 0.5885 1199.1115 59.0634)">
		</image>
	</g>
</g>
<rect x="23.7" y="2047.6" class="st0" width="1624.8" height="344.9"/>
<text transform="matrix(1 0 0 1 23.6674 2142.5476)"><tspan x="0" y="0" class="st11 st12">結果</tspan><tspan x="0" y="48" class="st1 st5">得点：パーフェクト　速さ：57.7秒　順位:3位／6チーム</tspan><tspan x="0" y="96" class="st1 st5">・ボーナス課題をクリアする工程で動きを効率化で出来る余地があった。</tspan><tspan x="0" y="144" class="st1 st5">・一位との差が10秒程あり、ハードウェアの改善する余地があった。(タイヤ、センサー間</tspan><tspan x="0" y="192" class="st1 st5">距離)</tspan></text>
<text transform="matrix(1 0 0 1 865.8779 1255.2944)" class="st1 st13">アームを下げている</text>
<text transform="matrix(1 0 0 1 1133.3391 1255.2952)" class="st1 st13">アームを上げている</text>
<rect x="1456.2" y="1230.5" class="st0" width="126.1" height="26.7"/>
<text transform="matrix(1 0 0 1 1456.2034 1249.6581)" class="st1 st13">全体図</text>
<line class="st14" x1="833.6" y1="868.1" x2="854.3" y2="1147.9"/>
<image style="overflow:visible;" width="1281" height="707" xlink:href="E31BF99F.png"  transform="matrix(0.569 0 0 0.569 902.3468 1382.1927)">
</image>
<text transform="matrix(1.603026e-02 -2.3819 1 6.730000e-03 973.3782 1730.5521)" class="st15 st1 st16">⇨</text>
<text transform="matrix(2.3813 5.528414e-02 -2.321000e-02 0.9997 971.4552 1590.0789)" class="st15 st1 st16">⇨</text>
<text transform="matrix(2.3813 5.528414e-02 -2.321000e-02 0.9997 1422.1847 1597.923)" class="st15 st1 st16">⇨</text>
<text transform="matrix(4.008754e-02 -2.3816 0.9999 1.683000e-02 1598.9021 1591.3236)" class="st15 st1 st16">⇨</text>
<text transform="matrix(2.662975e-02 2.3818 -0.9999 1.118000e-02 1277.295 1590.963)" class="st15 st1 st17">⇨</text>
<text transform="matrix(-6.002414e-03 -2.3819 1 -2.520000e-03 1348.8718 1593.245)" class="st15 st1 st17">⇨</text>
<text transform="matrix(0.9911 0 0 1 956.501 1739.998)" class="st15 st1 st18">①</text>
<text transform="matrix(0.9911 0 0 1 979.2922 1559.2373)" class="st15 st1 st18">②</text>
<text transform="matrix(0.9911 0 0 1 1241.2495 1645.7969)" class="st15 st1 st18">③</text>
<text transform="matrix(0.9911 0 0 1 1332.365 1586.5718)" class="st15 st1 st18">④</text>
<text transform="matrix(0.9911 0 0 1 1432.592 1566.0708)" class="st15 st1 st18">⑤</text>
<text transform="matrix(0.9911 0 0 1 1585.2104 1572.9045)" class="st15 st1 st18">⑥</text>
</svg>
